# xmcd
#
# Track frame offsets:
#	151
#	15833
#	33421
#	44949
#	59637
#	73190
#	95777
#	108810
#	122467
#	139248
#	151755
#	163534
#	179301
#	191452
#	200949
#	226794
#	242014
#	260489
#
# Disc length: 3706
#
# Revision: 1
# Processed by: cddbd v1.5.1PL0 Copyright (c) Steve Scherf et al.
# Submitted via: CDex 1.50
# Normalized: r0:DSETVAR1,TDELIM( - )
#
DISCID=fb0e7812
DTITLE=Various Artist - 傳世爵士音樂 1-3
DYEAR=1900
DGENRE=Jazz
TTITLE0=Billie Holiday - Yesterday
TTITLE1=Ella Fitzgerald - Good Enough To Keep
TTITLE2=Tony Bennett - Boulevard Of Broken Dreams
TTITLE3=Boots Castle - The Hour Of Parting
TTITLE4=Paula Green - I've Got My Eyes On You
TTITLE5=Joe Williams - Satin Doll
TTITLE6=Fred Sataire - The Half Of It, Dearie, Blues
TTITLE7=Jack Teagarden - Beale Streets Blues
TTITLE8=Bob Eberly - The Nearness Of You
TTITLE9=Al Jolson - I Only Have Eyes For You
TTITLE10=Fats Waller - A-Tisket, A-Tasket
TTITLE11=Dolly Mitchell - Shoo Shoo Baby
TTITLE12=Anita O'Day - Lady In Red
TTITLE13=Peggy Lee - Let There Be Love
TTITLE14=Ruth Brown - Be Anything
TTITLE15=Dakota Staton - Girl Talk
TTITLE16=Jackie Paris and Anne Marie Moss - Fish Fry
TTITLE17=Earl Colemen - All In Love Is Fair
EXTD=
EXTT0=
EXTT1=
EXTT2=
EXTT3=
EXTT4=
EXTT5=
EXTT6=
EXTT7=
EXTT8=
EXTT9=
EXTT10=
EXTT11=
EXTT12=
EXTT13=
EXTT14=
EXTT15=
EXTT16=
EXTT17=
PLAYORDER=
